<svg width="375" height="100" viewBox="0 0 375 100" fill="none" xmlns="http://www.w3.org/2000/svg">
<path d="M50.6829 88.162C49.7109 88.162 48.7749 88.036 47.8749 87.784C46.9869 87.52 46.2489 87.154 45.6609 86.686L46.5609 84.67C47.7969 85.534 49.1769 85.966 50.7009 85.966C51.5169 85.966 52.1409 85.84 52.5729 85.588C53.0169 85.324 53.2389 84.958 53.2389 84.49C53.2389 84.082 53.0349 83.764 52.6269 83.536C52.2309 83.296 51.5289 83.068 50.5209 82.852C49.3929 82.624 48.4929 82.348 47.8209 82.024C47.1609 81.688 46.6749 81.286 46.3629 80.818C46.0629 80.338 45.9129 79.744 45.9129 79.036C45.9129 78.268 46.1229 77.578 46.5429 76.966C46.9749 76.354 47.5749 75.88 48.3429 75.544C49.1109 75.196 49.9989 75.022 51.0069 75.022C51.9189 75.022 52.7949 75.154 53.6349 75.418C54.4749 75.682 55.1469 76.042 55.6509 76.498L54.7509 78.514C53.6229 77.65 52.3809 77.218 51.0249 77.218C50.3049 77.218 49.7289 77.362 49.2969 77.65C48.8649 77.938 48.6489 78.328 48.6489 78.82C48.6489 79.108 48.7269 79.348 48.8829 79.54C49.0509 79.732 49.3269 79.906 49.7109 80.062C50.0949 80.206 50.6409 80.35 51.3489 80.494C52.9929 80.854 54.1749 81.322 54.8949 81.898C55.6269 82.474 55.9929 83.26 55.9929 84.256C55.9929 85.456 55.5249 86.41 54.5889 87.118C53.6529 87.814 52.3509 88.162 50.6829 88.162ZM66.9949 78.874V88H64.3129V86.65C64.0369 87.118 63.6469 87.484 63.1429 87.748C62.6389 88.012 62.0689 88.144 61.4329 88.144C60.6409 88.144 59.9389 87.952 59.3269 87.568C58.7269 87.184 58.2529 86.638 57.9049 85.93C57.5689 85.21 57.4009 84.382 57.4009 83.446C57.4009 82.51 57.5689 81.676 57.9049 80.944C58.2529 80.212 58.7329 79.648 59.3449 79.252C59.9569 78.844 60.6529 78.64 61.4329 78.64C62.0689 78.64 62.6389 78.778 63.1429 79.054C63.6469 79.33 64.0369 79.702 64.3129 80.17V78.874H66.9949ZM62.2249 86.074C62.8969 86.074 63.4129 85.846 63.7729 85.39C64.1329 84.934 64.3129 84.274 64.3129 83.41C64.3129 82.546 64.1329 81.886 63.7729 81.43C63.4129 80.962 62.8969 80.728 62.2249 80.728C61.5529 80.728 61.0309 80.968 60.6589 81.448C60.2869 81.928 60.1009 82.594 60.1009 83.446C60.1009 84.298 60.2809 84.952 60.6409 85.408C61.0129 85.852 61.5409 86.074 62.2249 86.074ZM77.9008 78.874V88H75.2548V86.668C74.9668 87.148 74.5888 87.514 74.1208 87.766C73.6528 88.018 73.1248 88.144 72.5368 88.144C71.3968 88.144 70.5448 87.826 69.9808 87.19C69.4168 86.554 69.1348 85.594 69.1348 84.31V78.874H71.8528V84.364C71.8528 85.468 72.3268 86.02 73.2748 86.02C73.8388 86.02 74.2948 85.828 74.6428 85.444C74.9908 85.06 75.1648 84.556 75.1648 83.932V78.874H77.9008ZM72.6988 77.704L74.4808 73.996H77.1448L74.3728 77.704H72.6988ZM89.2488 74.752V88H86.5668V86.65C86.2908 87.118 85.9008 87.484 85.3968 87.748C84.8928 88.012 84.3228 88.144 83.6868 88.144C82.9068 88.144 82.2108 87.946 81.5988 87.55C80.9868 87.142 80.5068 86.578 80.1588 85.858C79.8228 85.126 79.6548 84.292 79.6548 83.356C79.6548 82.42 79.8228 81.598 80.1588 80.89C80.5068 80.17 80.9808 79.618 81.5808 79.234C82.1928 78.838 82.8948 78.64 83.6868 78.64C84.2988 78.64 84.8568 78.772 85.3608 79.036C85.8648 79.288 86.2548 79.642 86.5308 80.098V74.752H89.2488ZM84.4788 86.074C85.1508 86.074 85.6668 85.846 86.0268 85.39C86.3868 84.922 86.5668 84.256 86.5668 83.392C86.5668 82.54 86.3808 81.886 86.0088 81.43C85.6488 80.962 85.1388 80.728 84.4788 80.728C83.8068 80.728 83.2848 80.956 82.9128 81.412C82.5408 81.868 82.3548 82.516 82.3548 83.356C82.3548 84.22 82.5408 84.892 82.9128 85.372C83.2848 85.84 83.8068 86.074 84.4788 86.074ZM99.6327 83.662H93.6207C93.6687 84.514 93.8907 85.138 94.2867 85.534C94.6827 85.918 95.2707 86.11 96.0507 86.11C96.5187 86.11 96.9867 86.032 97.4547 85.876C97.9227 85.72 98.3547 85.492 98.7507 85.192L99.4707 87.028C99.0387 87.376 98.4987 87.652 97.8507 87.856C97.2147 88.048 96.5727 88.144 95.9247 88.144C94.3887 88.144 93.1827 87.724 92.3067 86.884C91.4307 86.032 90.9927 84.874 90.9927 83.41C90.9927 82.486 91.1787 81.664 91.5507 80.944C91.9347 80.212 92.4687 79.648 93.1527 79.252C93.8367 78.844 94.6107 78.64 95.4747 78.64C96.7587 78.64 97.7727 79.06 98.5167 79.9C99.2607 80.728 99.6327 81.85 99.6327 83.266V83.662ZM95.5467 80.548C95.0307 80.548 94.6107 80.698 94.2867 80.998C93.9747 81.298 93.7707 81.736 93.6747 82.312H97.2927C97.1487 81.136 96.5667 80.548 95.5467 80.548ZM112.036 78.64C114.196 78.64 115.276 79.918 115.276 82.474V88H112.558V82.6C112.558 81.964 112.438 81.502 112.198 81.214C111.97 80.914 111.604 80.764 111.1 80.764C110.5 80.764 110.02 80.956 109.66 81.34C109.3 81.724 109.12 82.24 109.12 82.888V88H106.402V81.484C106.402 80.512 106.354 79.642 106.258 78.874H108.814L108.994 80.314C109.318 79.774 109.738 79.36 110.254 79.072C110.782 78.784 111.376 78.64 112.036 78.64ZM121.797 88.144C120.825 88.144 119.973 87.952 119.241 87.568C118.521 87.184 117.963 86.632 117.567 85.912C117.183 85.192 116.991 84.352 116.991 83.392C116.991 82.432 117.183 81.592 117.567 80.872C117.963 80.152 118.521 79.6 119.241 79.216C119.973 78.832 120.825 78.64 121.797 78.64C122.757 78.64 123.597 78.832 124.317 79.216C125.037 79.6 125.589 80.152 125.973 80.872C126.369 81.592 126.567 82.432 126.567 83.392C126.567 84.352 126.369 85.192 125.973 85.912C125.589 86.632 125.037 87.184 124.317 87.568C123.597 87.952 122.757 88.144 121.797 88.144ZM121.797 86.074C122.469 86.074 122.979 85.852 123.327 85.408C123.687 84.964 123.867 84.292 123.867 83.392C123.867 82.504 123.687 81.838 123.327 81.394C122.979 80.938 122.469 80.71 121.797 80.71C121.113 80.71 120.591 80.938 120.231 81.394C119.871 81.838 119.691 82.504 119.691 83.392C119.691 85.18 120.393 86.074 121.797 86.074ZM137.687 88.144C136.199 88.144 135.029 87.724 134.177 86.884C133.337 86.044 132.917 84.898 132.917 83.446C132.917 82.498 133.121 81.664 133.529 80.944C133.937 80.212 134.507 79.648 135.239 79.252C135.983 78.844 136.841 78.64 137.813 78.64C138.473 78.64 139.115 78.742 139.739 78.946C140.363 79.15 140.861 79.426 141.233 79.774L140.513 81.664C140.153 81.376 139.757 81.154 139.325 80.998C138.893 80.83 138.473 80.746 138.065 80.746C137.321 80.746 136.739 80.974 136.319 81.43C135.911 81.874 135.707 82.528 135.707 83.392C135.707 84.268 135.911 84.934 136.319 85.39C136.727 85.834 137.309 86.056 138.065 86.056C138.473 86.056 138.893 85.978 139.325 85.822C139.757 85.654 140.153 85.426 140.513 85.138L141.233 87.028C140.837 87.376 140.321 87.652 139.685 87.856C139.049 88.048 138.383 88.144 137.687 88.144ZM146.881 88.144C145.909 88.144 145.057 87.952 144.325 87.568C143.605 87.184 143.047 86.632 142.651 85.912C142.267 85.192 142.075 84.352 142.075 83.392C142.075 82.432 142.267 81.592 142.651 80.872C143.047 80.152 143.605 79.6 144.325 79.216C145.057 78.832 145.909 78.64 146.881 78.64C147.841 78.64 148.681 78.832 149.401 79.216C150.121 79.6 150.673 80.152 151.057 80.872C151.453 81.592 151.651 82.432 151.651 83.392C151.651 84.352 151.453 85.192 151.057 85.912C150.673 86.632 150.121 87.184 149.401 87.568C148.681 87.952 147.841 88.144 146.881 88.144ZM146.881 86.074C147.553 86.074 148.063 85.852 148.411 85.408C148.771 84.964 148.951 84.292 148.951 83.392C148.951 82.504 148.771 81.838 148.411 81.394C148.063 80.938 147.553 80.71 146.881 80.71C146.197 80.71 145.675 80.938 145.315 81.394C144.955 81.838 144.775 82.504 144.775 83.392C144.775 85.18 145.477 86.074 146.881 86.074ZM159.022 78.64C161.182 78.64 162.262 79.918 162.262 82.474V88H159.544V82.6C159.544 81.964 159.424 81.502 159.184 81.214C158.956 80.914 158.59 80.764 158.086 80.764C157.486 80.764 157.006 80.956 156.646 81.34C156.286 81.724 156.106 82.24 156.106 82.888V88H153.388V81.484C153.388 80.512 153.34 79.642 153.244 78.874H155.8L155.98 80.314C156.304 79.774 156.724 79.36 157.24 79.072C157.768 78.784 158.362 78.64 159.022 78.64ZM169.215 76.894C168.795 76.894 168.459 77.014 168.207 77.254C167.955 77.482 167.829 77.854 167.829 78.37V78.874H169.737V80.908H167.829V88H165.111V80.908H163.401V78.874H165.111V78.298C165.111 77.146 165.405 76.252 165.993 75.616C166.581 74.98 167.433 74.662 168.549 74.662C169.173 74.662 169.689 74.74 170.097 74.896V77.02C169.749 76.936 169.455 76.894 169.215 76.894ZM175.621 88.144C174.649 88.144 173.797 87.952 173.065 87.568C172.345 87.184 171.787 86.632 171.391 85.912C171.007 85.192 170.815 84.352 170.815 83.392C170.815 82.432 171.007 81.592 171.391 80.872C171.787 80.152 172.345 79.6 173.065 79.216C173.797 78.832 174.649 78.64 175.621 78.64C176.581 78.64 177.421 78.832 178.141 79.216C178.861 79.6 179.413 80.152 179.797 80.872C180.193 81.592 180.391 82.432 180.391 83.392C180.391 84.352 180.193 85.192 179.797 85.912C179.413 86.632 178.861 87.184 178.141 87.568C177.421 87.952 176.581 88.144 175.621 88.144ZM175.621 86.074C176.293 86.074 176.803 85.852 177.151 85.408C177.511 84.964 177.691 84.292 177.691 83.392C177.691 82.504 177.511 81.838 177.151 81.394C176.803 80.938 176.293 80.71 175.621 80.71C174.937 80.71 174.415 80.938 174.055 81.394C173.695 81.838 173.515 82.504 173.515 83.392C173.515 85.18 174.217 86.074 175.621 86.074ZM187.438 78.658C187.822 78.658 188.146 78.718 188.41 78.838L188.392 81.322C187.948 81.118 187.504 81.016 187.06 81.016C186.34 81.016 185.788 81.214 185.404 81.61C185.032 81.994 184.846 82.534 184.846 83.23V88H182.128V81.484C182.128 80.512 182.08 79.642 181.984 78.874H184.54L184.72 80.44C184.948 79.864 185.302 79.426 185.782 79.126C186.274 78.814 186.826 78.658 187.438 78.658ZM193.828 80.908V84.454C193.828 84.958 193.96 85.33 194.224 85.57C194.488 85.798 194.83 85.912 195.25 85.912C195.514 85.912 195.814 85.87 196.15 85.786V87.892C195.718 88.06 195.196 88.144 194.584 88.144C193.456 88.144 192.592 87.826 191.992 87.19C191.404 86.554 191.11 85.66 191.11 84.508V80.908H189.382V78.874H191.11V76.732L193.828 75.85V78.874H196.15V80.908H193.828ZM201.9 88.144C200.928 88.144 200.076 87.952 199.344 87.568C198.624 87.184 198.066 86.632 197.67 85.912C197.286 85.192 197.094 84.352 197.094 83.392C197.094 82.432 197.286 81.592 197.67 80.872C198.066 80.152 198.624 79.6 199.344 79.216C200.076 78.832 200.928 78.64 201.9 78.64C202.86 78.64 203.7 78.832 204.42 79.216C205.14 79.6 205.692 80.152 206.076 80.872C206.472 81.592 206.67 82.432 206.67 83.392C206.67 84.352 206.472 85.192 206.076 85.912C205.692 86.632 205.14 87.184 204.42 87.568C203.7 87.952 202.86 88.144 201.9 88.144ZM201.9 86.074C202.572 86.074 203.082 85.852 203.43 85.408C203.79 84.964 203.97 84.292 203.97 83.392C203.97 82.504 203.79 81.838 203.43 81.394C203.082 80.938 202.572 80.71 201.9 80.71C201.216 80.71 200.694 80.938 200.334 81.394C199.974 81.838 199.794 82.504 199.794 83.392C199.794 85.18 200.496 86.074 201.9 86.074ZM222.614 74.752V88H219.932V86.65C219.656 87.118 219.266 87.484 218.762 87.748C218.258 88.012 217.688 88.144 217.052 88.144C216.272 88.144 215.576 87.946 214.964 87.55C214.352 87.142 213.872 86.578 213.524 85.858C213.188 85.126 213.02 84.292 213.02 83.356C213.02 82.42 213.188 81.598 213.524 80.89C213.872 80.17 214.346 79.618 214.946 79.234C215.558 78.838 216.26 78.64 217.052 78.64C217.664 78.64 218.222 78.772 218.726 79.036C219.23 79.288 219.62 79.642 219.896 80.098V74.752H222.614ZM217.844 86.074C218.516 86.074 219.032 85.846 219.392 85.39C219.752 84.922 219.932 84.256 219.932 83.392C219.932 82.54 219.746 81.886 219.374 81.43C219.014 80.962 218.504 80.728 217.844 80.728C217.172 80.728 216.65 80.956 216.278 81.412C215.906 81.868 215.72 82.516 215.72 83.356C215.72 84.22 215.906 84.892 216.278 85.372C216.65 85.84 217.172 86.074 217.844 86.074ZM233.952 78.874V88H231.27V86.65C230.994 87.118 230.604 87.484 230.1 87.748C229.596 88.012 229.026 88.144 228.39 88.144C227.598 88.144 226.896 87.952 226.284 87.568C225.684 87.184 225.21 86.638 224.862 85.93C224.526 85.21 224.358 84.382 224.358 83.446C224.358 82.51 224.526 81.676 224.862 80.944C225.21 80.212 225.69 79.648 226.302 79.252C226.914 78.844 227.61 78.64 228.39 78.64C229.026 78.64 229.596 78.778 230.1 79.054C230.604 79.33 230.994 79.702 231.27 80.17V78.874H233.952ZM229.182 86.074C229.854 86.074 230.37 85.846 230.73 85.39C231.09 84.934 231.27 84.274 231.27 83.41C231.27 82.546 231.09 81.886 230.73 81.43C230.37 80.962 229.854 80.728 229.182 80.728C228.51 80.728 227.988 80.968 227.616 81.448C227.244 81.928 227.058 82.594 227.058 83.446C227.058 84.298 227.238 84.952 227.598 85.408C227.97 85.852 228.498 86.074 229.182 86.074ZM244.7 88.144C242.972 88.144 241.61 87.772 240.614 87.028L241.334 85.138C241.814 85.486 242.348 85.756 242.936 85.948C243.524 86.128 244.124 86.218 244.736 86.218C245.204 86.218 245.564 86.146 245.816 86.002C246.068 85.858 246.194 85.648 246.194 85.372C246.194 85.144 246.104 84.964 245.924 84.832C245.744 84.7 245.426 84.586 244.97 84.49L243.476 84.148C242.6 83.956 241.952 83.65 241.532 83.23C241.124 82.81 240.92 82.252 240.92 81.556C240.92 80.992 241.082 80.488 241.406 80.044C241.742 79.6 242.204 79.258 242.792 79.018C243.38 78.766 244.058 78.64 244.826 78.64C245.474 78.64 246.11 78.742 246.734 78.946C247.358 79.138 247.916 79.414 248.408 79.774L247.652 81.592C247.184 81.268 246.704 81.022 246.212 80.854C245.732 80.686 245.264 80.602 244.808 80.602C244.364 80.602 244.016 80.68 243.764 80.836C243.512 80.992 243.386 81.208 243.386 81.484C243.386 81.688 243.458 81.856 243.602 81.988C243.758 82.108 244.028 82.21 244.412 82.294L245.942 82.636C246.878 82.852 247.556 83.176 247.976 83.608C248.396 84.04 248.606 84.616 248.606 85.336C248.606 86.2 248.258 86.884 247.562 87.388C246.866 87.892 245.912 88.144 244.7 88.144ZM258.973 78.874V88H256.327V86.668C256.039 87.148 255.661 87.514 255.193 87.766C254.725 88.018 254.197 88.144 253.609 88.144C252.469 88.144 251.617 87.826 251.053 87.19C250.489 86.554 250.207 85.594 250.207 84.31V78.874H252.925V84.364C252.925 85.468 253.399 86.02 254.347 86.02C254.911 86.02 255.367 85.828 255.715 85.444C256.063 85.06 256.237 84.556 256.237 83.932V78.874H258.973ZM270.321 78.874V88H267.639V86.65C267.363 87.118 266.973 87.484 266.469 87.748C265.965 88.012 265.395 88.144 264.759 88.144C263.967 88.144 263.265 87.952 262.653 87.568C262.053 87.184 261.579 86.638 261.231 85.93C260.895 85.21 260.727 84.382 260.727 83.446C260.727 82.51 260.895 81.676 261.231 80.944C261.579 80.212 262.059 79.648 262.671 79.252C263.283 78.844 263.979 78.64 264.759 78.64C265.395 78.64 265.965 78.778 266.469 79.054C266.973 79.33 267.363 79.702 267.639 80.17V78.874H270.321ZM265.551 86.074C266.223 86.074 266.739 85.846 267.099 85.39C267.459 84.934 267.639 84.274 267.639 83.41C267.639 82.546 267.459 81.886 267.099 81.43C266.739 80.962 266.223 80.728 265.551 80.728C264.879 80.728 264.357 80.968 263.985 81.448C263.613 81.928 263.427 82.594 263.427 83.446C263.427 84.298 263.607 84.952 263.967 85.408C264.339 85.852 264.867 86.074 265.551 86.074ZM281.897 88.144C280.409 88.144 279.239 87.724 278.387 86.884C277.547 86.044 277.127 84.898 277.127 83.446C277.127 82.498 277.331 81.664 277.739 80.944C278.147 80.212 278.717 79.648 279.449 79.252C280.193 78.844 281.051 78.64 282.023 78.64C282.683 78.64 283.325 78.742 283.949 78.946C284.573 79.15 285.071 79.426 285.443 79.774L284.723 81.664C284.363 81.376 283.967 81.154 283.535 80.998C283.103 80.83 282.683 80.746 282.275 80.746C281.531 80.746 280.949 80.974 280.529 81.43C280.121 81.874 279.917 82.528 279.917 83.392C279.917 84.268 280.121 84.934 280.529 85.39C280.937 85.834 281.519 86.056 282.275 86.056C282.683 86.056 283.103 85.978 283.535 85.822C283.967 85.654 284.363 85.426 284.723 85.138L285.443 87.028C285.047 87.376 284.531 87.652 283.895 87.856C283.259 88.048 282.593 88.144 281.897 88.144ZM295.88 78.874V88H293.198V86.65C292.922 87.118 292.532 87.484 292.028 87.748C291.524 88.012 290.954 88.144 290.318 88.144C289.526 88.144 288.824 87.952 288.212 87.568C287.612 87.184 287.138 86.638 286.79 85.93C286.454 85.21 286.286 84.382 286.286 83.446C286.286 82.51 286.454 81.676 286.79 80.944C287.138 80.212 287.618 79.648 288.23 79.252C288.842 78.844 289.538 78.64 290.318 78.64C290.954 78.64 291.524 78.778 292.028 79.054C292.532 79.33 292.922 79.702 293.198 80.17V78.874H295.88ZM291.11 86.074C291.782 86.074 292.298 85.846 292.658 85.39C293.018 84.934 293.198 84.274 293.198 83.41C293.198 82.546 293.018 81.886 292.658 81.43C292.298 80.962 291.782 80.728 291.11 80.728C290.438 80.728 289.916 80.968 289.544 81.448C289.172 81.928 288.986 82.594 288.986 83.446C288.986 84.298 289.166 84.952 289.526 85.408C289.898 85.852 290.426 86.074 291.11 86.074ZM301.566 88.144C299.838 88.144 298.476 87.772 297.48 87.028L298.2 85.138C298.68 85.486 299.214 85.756 299.802 85.948C300.39 86.128 300.99 86.218 301.602 86.218C302.07 86.218 302.43 86.146 302.682 86.002C302.934 85.858 303.06 85.648 303.06 85.372C303.06 85.144 302.97 84.964 302.79 84.832C302.61 84.7 302.292 84.586 301.836 84.49L300.342 84.148C299.466 83.956 298.818 83.65 298.398 83.23C297.99 82.81 297.786 82.252 297.786 81.556C297.786 80.992 297.948 80.488 298.272 80.044C298.608 79.6 299.07 79.258 299.658 79.018C300.246 78.766 300.924 78.64 301.692 78.64C302.34 78.64 302.976 78.742 303.6 78.946C304.224 79.138 304.782 79.414 305.274 79.774L304.518 81.592C304.05 81.268 303.57 81.022 303.078 80.854C302.598 80.686 302.13 80.602 301.674 80.602C301.23 80.602 300.882 80.68 300.63 80.836C300.378 80.992 300.252 81.208 300.252 81.484C300.252 81.688 300.324 81.856 300.468 81.988C300.624 82.108 300.894 82.21 301.278 82.294L302.808 82.636C303.744 82.852 304.422 83.176 304.842 83.608C305.262 84.04 305.472 84.616 305.472 85.336C305.472 86.2 305.124 86.884 304.428 87.388C303.732 87.892 302.778 88.144 301.566 88.144ZM316.27 78.874V88H313.588V86.65C313.312 87.118 312.922 87.484 312.418 87.748C311.914 88.012 311.344 88.144 310.708 88.144C309.916 88.144 309.214 87.952 308.602 87.568C308.002 87.184 307.528 86.638 307.18 85.93C306.844 85.21 306.676 84.382 306.676 83.446C306.676 82.51 306.844 81.676 307.18 80.944C307.528 80.212 308.008 79.648 308.62 79.252C309.232 78.844 309.928 78.64 310.708 78.64C311.344 78.64 311.914 78.778 312.418 79.054C312.922 79.33 313.312 79.702 313.588 80.17V78.874H316.27ZM311.5 86.074C312.172 86.074 312.688 85.846 313.048 85.39C313.408 84.934 313.588 84.274 313.588 83.41C313.588 82.546 313.408 81.886 313.048 81.43C312.688 80.962 312.172 80.728 311.5 80.728C310.828 80.728 310.306 80.968 309.934 81.448C309.562 81.928 309.376 82.594 309.376 83.446C309.376 84.298 309.556 84.952 309.916 85.408C310.288 85.852 310.816 86.074 311.5 86.074ZM318.032 75.166L321.398 75.184L320.552 83.878H318.896L318.032 75.166ZM321.182 85.102V88H318.248V85.102H321.182Z" fill="#FA696D"/>
<path d="M48.2338 30.385C47.6105 29.615 47.1888 28.8083 46.9688 27.965C46.7488 27.085 46.6388 26.095 46.6388 24.995V23.895C46.6388 23.6383 46.6388 23.3267 46.6388 22.96C46.6755 22.5567 46.6755 22.1167 46.6388 21.64C48.7288 21.5667 50.2505 21.915 51.2038 22.685C52.1938 23.455 52.8905 24.7933 53.2938 26.7C54.2471 31.1733 55.3838 35.775 56.7038 40.505C57.0338 41.6417 57.4555 42.65 57.9688 43.53C58.4821 44.3733 59.1971 45.1067 60.1138 45.73L60.8288 44.795C61.3421 44.0983 61.6538 43.64 61.7638 43.42C62.3138 42.3567 63.0471 40.725 63.9638 38.525L67.1538 31.65C69.3171 27.03 71.4071 23.1617 73.4238 20.045C74.9638 17.295 76.9255 15.4617 79.3088 14.545C80.0788 14.2517 80.8305 14.0867 81.5638 14.05C82.3705 14.0133 83.1588 14.1783 83.9288 14.545C84.4055 14.765 84.7721 15.0767 85.0288 15.48C85.3221 15.8467 85.4688 16.2683 85.4688 16.745C85.4688 17.3683 85.2121 17.9367 84.6988 18.45C84.1121 19.0367 83.6355 19.4217 83.2688 19.605C82.2788 20.0817 81.4355 20.705 80.7388 21.475C80.0788 22.2083 79.4921 22.96 78.9788 23.73C78.4655 24.5 78.1171 25.0133 77.9338 25.27C76.5038 27.2867 75.2938 29.395 74.3038 31.595C73.3505 33.7583 72.2138 36.5267 70.8938 39.9L69.9038 42.43C69.2438 44.1167 68.6021 45.5833 67.9788 46.83C67.3555 48.0767 66.6405 49.2683 65.8338 50.405C65.1005 51.285 64.2755 51.7617 63.3588 51.835C62.9555 51.8717 62.4788 51.78 61.9288 51.56C57.1255 49.6533 53.8071 46.5917 51.9738 42.375C51.3505 40.945 50.8005 39.3867 50.3238 37.7C49.8471 35.9767 49.5538 34.95 49.4438 34.62C49.0038 33.08 48.7105 32.0717 48.5638 31.595C48.5271 31.4483 48.4905 31.2467 48.4538 30.99C48.4171 30.6967 48.3438 30.495 48.2338 30.385ZM92.9295 43.42C92.5628 43.64 92.0311 43.75 91.3345 43.75C91.0778 43.75 90.7661 43.7317 90.3995 43.695C90.0328 43.6583 89.7211 43.6583 89.4645 43.695C89.7578 44.905 90.4545 45.895 91.5545 46.665C92.6545 47.3983 93.8828 47.765 95.2395 47.765C96.4128 47.765 97.4578 47.5083 98.3745 46.995C99.7311 46.2983 100.904 45.4733 101.894 44.52C102.591 43.8233 103.251 43.475 103.874 43.475C104.278 43.475 104.626 43.6767 104.919 44.08C105.213 44.5567 105.359 45.1433 105.359 45.84C105.359 46.5733 105.213 47.1417 104.919 47.545C103.966 49.0117 102.719 50.02 101.179 50.57C99.6761 51.12 97.9161 51.395 95.8995 51.395C93.8095 51.395 91.7928 50.9367 89.8495 50.02C87.9061 49.1033 86.2378 47.8567 84.8445 46.28C83.4878 44.6667 82.5895 42.8883 82.1495 40.945C81.8561 39.8083 81.7095 38.69 81.7095 37.59C81.7095 35.8667 82.1861 34.4733 83.1395 33.41C84.1295 32.3467 85.7061 31.3383 87.8695 30.385C89.8495 29.5417 91.6828 29.12 93.3695 29.12C94.5795 29.12 95.7528 29.3033 96.8895 29.67C100.409 30.77 102.169 32.2733 102.169 34.18C102.169 35.39 101.454 36.8567 100.024 38.58C99.3278 39.3867 98.5028 40.1017 97.5495 40.725C96.5961 41.3483 95.6611 41.9167 94.7445 42.43C93.8645 42.9067 93.2595 43.2367 92.9295 43.42ZM95.2395 33.245C95.2028 33.0617 95.0561 32.915 94.7995 32.805C94.5795 32.6583 94.4511 32.5667 94.4145 32.53C93.4245 32.4567 92.4161 32.75 91.3895 33.41C90.3628 34.0333 89.5011 34.84 88.8045 35.83C88.1445 36.82 87.8145 37.7733 87.8145 38.69L87.8695 39.13C87.9061 39.2767 88.0895 39.46 88.4195 39.68C88.7861 39.9 89.0061 39.9733 89.0795 39.9C91.6828 37.9567 93.6445 36.3983 94.9645 35.225C95.1845 35.005 95.2945 34.6017 95.2945 34.015C95.2945 33.6483 95.2761 33.3917 95.2395 33.245ZM130.812 35.005C132.315 32.805 134.02 32.0717 135.927 32.805C137.87 33.5383 139.044 34.455 139.447 35.555L141.097 39.955C141.537 41.0917 141.904 42.8333 142.197 45.18C142.527 47.5267 142.82 49.7633 143.077 51.89C143.114 52 143.132 52.2017 143.132 52.495C143.132 53.6317 142.509 54.365 141.262 54.695C140.455 54.915 139.795 54.7133 139.282 54.09C138.512 53.1733 137.889 51.7617 137.412 49.855C137.155 48.8283 136.789 46.6283 136.312 43.255C136.312 40.615 135.395 39.6433 133.562 40.34C132.609 42.21 131.985 43.7317 131.692 44.905C131.435 46.0783 131.16 47.0867 130.867 47.93C129.95 50.0567 129.162 51.2117 128.502 51.395C127.879 51.5417 127.255 51.4683 126.632 51.175C126.045 50.8817 125.752 50.295 125.752 49.415C125.752 47.5817 125.642 45.345 125.422 42.705C125.239 40.0283 124.615 38.7633 123.552 38.91C122.525 39.02 121.81 39.405 121.407 40.065C121.004 40.6883 120.49 41.88 119.867 43.64C119.28 45.4 118.84 47.325 118.547 49.415C118.474 49.965 118.254 50.57 117.887 51.23C117.557 51.8533 117.245 52.2383 116.952 52.385C116.659 52.5683 116.109 52.4767 115.302 52.11C114.532 51.78 114.074 51.285 113.927 50.625C113.78 49.9283 113.652 49.2133 113.542 48.48C113.249 46.4267 113.102 44.6667 113.102 43.2C113.139 41.7333 113.029 40.3583 112.772 39.075C112.699 38.7817 112.534 38.3417 112.277 37.755C112.02 37.1683 110.682 36.1783 108.262 34.785C107.602 34.1617 107.29 33.5567 107.327 32.97C107.364 32.3467 107.62 31.8883 108.097 31.595C108.83 31.155 109.619 30.935 110.462 30.935C111.525 30.935 112.534 31.2467 113.487 31.87C114.44 32.4933 115.155 33.19 115.632 33.96C116.072 34.6567 116.365 35.2067 116.512 35.61C116.659 36.0133 116.86 36.215 117.117 36.215C117.337 36.215 117.575 36.05 117.832 35.72C118.125 35.3533 118.529 34.895 119.042 34.345C120.105 33.2083 121.114 32.4567 122.067 32.09C123.057 31.6867 123.864 31.485 124.487 31.485C125.147 31.485 125.844 31.705 126.577 32.145C127.31 32.5483 127.805 33.2633 128.062 34.29L129.107 38.36L130.812 35.005ZM159.938 27.525C158.875 29.505 158.178 31.0633 157.848 32.2C157.555 33.3367 157.298 34.6933 157.078 36.27C157.445 36.27 158.05 36.27 158.893 36.27C159.736 36.2333 160.286 36.1967 160.543 36.16L163.678 35.5C164.448 35.3167 165.126 35.17 165.713 35.06C166.3 34.9133 167.381 34.7117 168.958 34.455C169.655 34.345 170.406 34.2717 171.213 34.235C172.02 34.1983 172.551 34.18 172.808 34.18C173.688 34.18 174.348 34.1617 174.788 34.125C175.411 34.125 175.851 34.235 176.108 34.455C177.171 35.3717 177.703 36.16 177.703 36.82C177.703 37.26 177.538 37.5717 177.208 37.755C176.878 37.9383 176.365 38.14 175.668 38.36L170.553 39.46L159.883 42.375C159.7 42.4117 159.516 42.485 159.333 42.595C159.186 42.6683 159.021 42.7233 158.838 42.76C157.665 43.0167 156.876 43.2367 156.473 43.42C156.106 43.5667 155.868 43.8417 155.758 44.245C155.685 44.6483 155.648 45.4367 155.648 46.61V48.81C155.648 49.8 155.611 50.5517 155.538 51.065C155.318 52.8983 154.64 53.815 153.503 53.815C152.88 53.815 152.165 53.5767 151.358 53.1C150.441 52.55 149.745 51.945 149.268 51.285C148.828 50.5883 148.608 49.7817 148.608 48.865C148.608 48.535 148.626 48.2783 148.663 48.095C148.956 45.5283 149.158 43.6217 149.268 42.375C149.378 41.3117 149.525 39.9733 149.708 38.36C149.891 36.71 150.13 34.8033 150.423 32.64C150.9 29.23 152.091 26.2233 153.998 23.62C155.941 21.0167 158.49 18.6333 161.643 16.47C164.76 14.3067 167.876 12.9317 170.993 12.345C171.616 12.1983 172.331 12.125 173.138 12.125C175.558 12.125 177.63 13.0417 179.353 14.875C180.05 15.5717 180.398 16.1767 180.398 16.69C180.398 16.91 180.306 17.2033 180.123 17.57C179.646 18.34 178.986 18.725 178.143 18.725C177.85 18.725 177.538 18.67 177.208 18.56C177.025 18.4867 176.786 18.4133 176.493 18.34C176.236 18.2667 176.035 18.1933 175.888 18.12C175.265 17.68 174.55 17.46 173.743 17.46C172.643 17.13 171.415 17.3317 170.058 18.065C168.701 18.7983 166.85 20.0817 164.503 21.915C163.256 22.8317 162.175 23.8767 161.258 25.05L159.938 27.525ZM182.906 46.445C182.98 45.9317 183.016 45.18 183.016 44.19L182.961 40.945L182.301 31.375L182.246 30.55C182.246 28.6067 183.071 27.635 184.721 27.635C185.125 27.635 185.473 27.7817 185.766 28.075C186.096 28.3683 186.39 28.515 186.646 28.515C187.196 28.515 187.673 28.2767 188.076 27.8C188.516 27.2867 188.975 26.7733 189.451 26.26C190.221 25.4533 191.12 24.8117 192.146 24.335C193.21 23.8583 194.273 23.62 195.336 23.62C196.363 23.62 197.188 23.7483 197.811 24.005C197.995 24.0783 198.196 24.2433 198.416 24.5C198.673 24.72 198.801 24.9033 198.801 25.05C198.801 25.1967 198.691 25.4167 198.471 25.71C198.288 25.9667 198.123 26.1133 197.976 26.15C196.546 26.4433 195.3 27.0483 194.236 27.965C193.21 28.8817 192.531 29.725 192.201 30.495C191.908 31.2283 191.468 32.6033 190.881 34.62C190.551 35.7567 190.295 36.93 190.111 38.14C189.965 39.3133 189.91 40.8167 189.946 42.65C189.91 42.8333 189.891 43.09 189.891 43.42C189.891 43.8967 189.928 44.5383 190.001 45.345C190.075 46.225 190.111 46.8483 190.111 47.215C190.111 49.0483 189.91 50.0933 189.506 50.35C188.92 50.6433 188.15 50.79 187.196 50.79C186.426 50.79 185.803 50.6983 185.326 50.515C183.676 49.8917 182.851 48.755 182.851 47.105C182.851 46.8117 182.87 46.5917 182.906 46.445ZM211.503 46.61C212.713 44.5567 213.318 42.0083 213.318 38.965C213.318 38.0483 213.245 36.655 213.098 34.785V31.1V29.12C213.098 27.9467 213.52 27.36 214.363 27.36C214.656 27.36 214.95 27.415 215.243 27.525C217.113 28.3317 218.176 29.1933 218.433 30.11C219.35 33.1167 219.808 36.0683 219.808 38.965C219.808 42.155 219.221 45.2167 218.048 48.15C217.425 49.69 216.453 50.845 215.133 51.615C213.85 52.385 212.42 52.77 210.843 52.77C208.9 52.77 207.195 52.2933 205.728 51.34C203.198 49.7267 201.713 47.4167 201.273 44.41C201.09 42.9067 200.925 41.7517 200.778 40.945C200.411 38.7817 200.173 37.095 200.063 35.885C200.026 35.0417 200.32 34.3633 200.943 33.85C201.566 33.3 202.318 33.025 203.198 33.025C203.528 33.025 203.858 33.08 204.188 33.19C205.545 33.6667 206.48 34.345 206.993 35.225C207.506 36.105 207.745 37.2967 207.708 38.8C207.635 39.9733 207.598 40.8533 207.598 41.44C207.598 43.53 208.02 45.2533 208.863 46.61C209.01 46.9033 209.211 47.1783 209.468 47.435C209.725 47.6917 209.89 47.8017 209.963 47.765C210.256 47.7283 210.531 47.6 210.788 47.38C211.081 47.16 211.32 46.9033 211.503 46.61ZM224.911 31.485C224.654 31.1917 224.471 30.88 224.361 30.55C224.287 30.22 224.214 29.7617 224.141 29.175C224.471 28.405 225.076 28.02 225.956 28.02C226.396 28.0933 226.707 28.13 226.891 28.13C227.624 28.13 228.082 27.91 228.266 27.47C228.449 27.03 228.541 26.5167 228.541 25.93C228.541 25.3433 228.541 24.885 228.541 24.555L228.706 21.255C228.742 20.5217 228.779 19.6233 228.816 18.56C228.889 17.46 228.962 16.195 229.036 14.765C229.072 13.995 229.256 13.4267 229.586 13.06C229.952 12.6933 230.447 12.51 231.071 12.51C231.511 12.51 231.859 12.5467 232.116 12.62C233.619 12.95 234.627 13.4267 235.141 14.05C235.654 14.6733 236.002 15.6083 236.186 16.855C236.222 17.1117 236.186 17.6433 236.076 18.45L235.086 27.03C235.049 27.25 234.994 27.525 234.921 27.855C234.847 28.1483 234.811 28.3683 234.811 28.515C234.811 28.845 234.994 29.065 235.361 29.175C235.727 29.285 236.406 29.3217 237.396 29.285C239.082 28.9183 240.366 28.68 241.246 28.57C241.429 28.5333 241.722 28.515 242.126 28.515C242.566 28.515 242.859 28.57 243.006 28.68C243.152 28.7533 243.262 28.9733 243.336 29.34C243.446 29.67 243.501 30.055 243.501 30.495C243.501 30.8983 243.446 31.265 243.336 31.595C243.262 31.925 243.152 32.1083 243.006 32.145C242.016 32.4383 240.842 32.6767 239.486 32.86C237.872 33.1533 236.681 33.41 235.911 33.63C235.507 33.74 235.104 34.015 234.701 34.455C234.297 34.895 234.077 35.2983 234.041 35.665C233.967 37.4617 233.912 39.295 233.876 41.165C233.839 42.595 233.894 44.025 234.041 45.455C234.151 46.665 234.389 47.545 234.756 48.095C235.122 48.6083 235.672 48.865 236.406 48.865C236.992 48.865 237.836 48.6633 238.936 48.26C239.522 48.0033 240.036 47.875 240.476 47.875C241.172 47.875 241.667 48.26 241.961 49.03C242.071 49.2867 242.126 49.5433 242.126 49.8C242.126 50.2767 241.942 50.6617 241.576 50.955C241.246 51.2483 240.787 51.505 240.201 51.725C239.101 52.1283 237.982 52.3483 236.846 52.385C235.306 52.385 233.857 52.0183 232.501 51.285C231.144 50.515 230.062 49.4517 229.256 48.095C228.486 46.7383 228.156 45.18 228.266 43.42C228.302 42.7233 228.321 41.6233 228.321 40.12C228.321 37.7367 228.229 35.3167 228.046 32.86C228.009 32.64 227.881 32.4933 227.661 32.42C227.441 32.31 227.074 32.2 226.561 32.09C225.717 31.9433 225.167 31.7417 224.911 31.485ZM264.587 49.195C264.257 49.0483 263.927 48.975 263.597 48.975C263.267 48.975 262.974 49.0667 262.717 49.25C262.497 49.3967 262.24 49.635 261.947 49.965C261.507 50.405 261.049 50.7717 260.572 51.065C260.132 51.3217 259.325 51.56 258.152 51.78C257.639 51.8533 257.217 51.89 256.887 51.89C255.347 51.89 253.734 51.56 252.047 50.9C250.397 50.2033 249.224 49.3783 248.527 48.425C247.794 47.3983 247.445 46.2983 247.482 45.125C247.519 43.365 248.252 41.605 249.682 39.845C251.075 38.1583 252.34 36.9667 253.477 36.27C254.65 35.5733 256.245 35.1333 258.262 34.95C258.702 34.95 259.325 34.8767 260.132 34.73C260.975 34.5833 261.397 34.3817 261.397 34.125C261.397 33.6117 261.159 33.1533 260.682 32.75C260.242 32.31 259.325 32.09 257.932 32.09C257.419 32.09 256.649 32.1267 255.622 32.2C254.595 32.2733 253.88 32.31 253.477 32.31C252.23 32.31 251.332 32.1083 250.782 31.705C250.635 31.6317 250.562 31.2833 250.562 30.66C250.562 29.56 250.947 28.8633 251.717 28.57C253.294 27.9833 254.925 27.6717 256.612 27.635C258.739 27.635 260.7 28.1117 262.497 29.065C264.33 29.9817 265.669 31.1367 266.512 32.53C267.355 33.9233 267.905 35.8483 268.162 38.305C268.455 41.055 268.602 44.5567 268.602 48.81C268.602 49.9833 268.437 50.6617 268.107 50.845C267.814 51.0283 267.539 51.12 267.282 51.12C266.952 51.12 266.64 51.0283 266.347 50.845C266.09 50.625 265.797 50.3317 265.467 49.965C265.137 49.5617 264.844 49.305 264.587 49.195ZM255.897 48.535C257.62 48.0217 259.307 47.1967 260.957 46.06C261.324 45.8033 261.654 45.4733 261.947 45.07C262.24 44.6667 262.424 44.41 262.497 44.3C262.57 44.19 262.625 43.8783 262.662 43.365C262.735 42.815 262.754 42.375 262.717 42.045C262.68 41.935 262.607 41.6417 262.497 41.165C262.424 40.6883 262.295 40.2667 262.112 39.9C261.929 39.6067 261.635 39.3317 261.232 39.075C260.829 38.8183 260.462 38.7083 260.132 38.745C259.435 38.7817 258.684 39.0383 257.877 39.515C257.07 39.9917 256.319 40.6333 255.622 41.44C254.925 42.2833 254.375 43.145 253.972 44.025C253.605 44.8683 253.422 45.6567 253.422 46.39C253.495 47.38 253.77 48.04 254.247 48.37C254.504 48.5533 254.815 48.645 255.182 48.645C255.475 48.645 255.714 48.6083 255.897 48.535Z" fill="url(#paint0_linear)"/>
<path d="M287.394 13.9532C285.869 14.5545 284.468 15.4279 283.27 16.5235C282.072 17.619 281.101 18.9153 280.412 20.3383C279.723 21.7614 279.33 23.2832 279.255 24.8171C279.179 26.3509 279.424 27.8667 279.974 29.2778C280.524 30.689 281.368 31.9678 282.46 33.0415C283.551 34.1151 284.868 34.9624 286.335 35.535C287.801 36.1077 289.39 36.3944 291.008 36.3789C292.627 36.3634 294.245 36.0459 295.769 35.4446L291.581 24.6989L287.394 13.9532Z" fill="#FF8240"/>
<path d="M314.919 17.6265C316.943 19.29 318.641 21.3151 319.916 23.5861C321.19 25.8571 322.016 28.3296 322.347 30.8623C322.677 33.395 322.506 35.9385 321.842 38.3474C321.178 40.7562 320.035 42.9834 318.477 44.9017C316.92 46.82 314.979 48.3919 312.766 49.5276C310.552 50.6633 308.11 51.3405 305.577 51.5207C303.044 51.7008 300.471 51.3804 298.005 50.5776C295.538 49.7748 293.227 48.5054 291.202 46.8419L303.06 32.2342L314.919 17.6265Z" fill="#FA696D"/>
<defs>
<linearGradient id="paint0_linear" x1="158.346" y1="0" x2="158.346" y2="65.4605" gradientUnits="userSpaceOnUse">
<stop stop-color="#82BB25"/>
<stop offset="0.703125" stop-color="#93C73D"/>
<stop offset="1" stop-color="#9ACC47"/>
</linearGradient>
</defs>
</svg>
